<svg xmlns="http://www.w3.org/2000/svg" viewBox="0 0 1000 660" width="1000" height="660">
  <style>
    text { font-family: 'SF Mono', 'Fira Code', monospace; fill: #e2e8f0; }
  </style>
  <defs>
    <linearGradient id="bg-grad" x1="0%" y1="0%" x2="100%" y2="100%">
      <stop offset="0%" stop-color="#0f0f1a"/>
      <stop offset="100%" stop-color="#1a1a2e"/>
    </linearGradient>
    <marker id="arr-p" markerWidth="10" markerHeight="7" refX="9" refY="3.5" orient="auto">
      <polygon points="0 0, 10 3.5, 0 7" fill="#a855f7"/>
    </marker>
    <marker id="arr-o" markerWidth="10" markerHeight="7" refX="9" refY="3.5" orient="auto">
      <polygon points="0 0, 10 3.5, 0 7" fill="#f97316"/>
    </marker>
    <marker id="arr-g" markerWidth="10" markerHeight="7" refX="9" refY="3.5" orient="auto">
      <polygon points="0 0, 10 3.5, 0 7" fill="#10b981"/>
    </marker>
    <marker id="arr-b" markerWidth="10" markerHeight="7" refX="9" refY="3.5" orient="auto">
      <polygon points="0 0, 10 3.5, 0 7" fill="#3b82f6"/>
    </marker>
  </defs>
  <rect width="1000" height="660" fill="url(#bg-grad)"/>
  <text x="500" y="40" fill="#e2e8f0" font-size="15" font-weight="700" text-anchor="middle">AI Agent Architecture</text>
  <text x="500" y="58" fill="#94a3b8" font-size="10" text-anchor="middle">ReAct Pattern with Tool Routing</text>
  <line x1="500" y1="120" x2="500" y2="178" stroke="#a855f7" stroke-width="1.5" marker-end="url(#arr-p)"/>
  <line x1="500" y1="260" x2="500" y2="318" stroke="#a855f7" stroke-width="1.5" marker-end="url(#arr-p)"/>
  <line x1="420" y1="370" x2="240" y2="418" stroke="#f97316" stroke-width="1.5" marker-end="url(#arr-o)"/>
  <line x1="500" y1="380" x2="500" y2="418" stroke="#f97316" stroke-width="1.5" marker-end="url(#arr-o)"/>
  <line x1="580" y1="370" x2="760" y2="418" stroke="#10b981" stroke-width="1.5" marker-end="url(#arr-g)"/>
  <line x1="200" y1="480" x2="420" y2="528" stroke="#3b82f6" stroke-width="1.5" marker-end="url(#arr-b)"/>
  <line x1="500" y1="480" x2="500" y2="528" stroke="#3b82f6" stroke-width="1.5" marker-end="url(#arr-b)"/>
  <line x1="800" y1="480" x2="580" y2="528" stroke="#3b82f6" stroke-width="1.5" marker-end="url(#arr-b)"/>
  <line x1="500" y1="580" x2="500" y2="618" stroke="#a855f7" stroke-width="1.5" marker-end="url(#arr-p)"/>
  <path d="M 580,555 Q 880,400 580,220" fill="none" stroke="#7c3aed" stroke-width="1.5" stroke-dasharray="5,3" marker-end="url(#arr-p)"/>
  <rect x="400" y="80" width="200" height="40" rx="6" fill="#0f172a"/>
  <rect x="400" y="80" width="200" height="40" rx="6" fill="#1e1b4b" stroke="#a855f7" stroke-width="1.5"/>
  <text x="500.0" y="104.0" fill="#e2e8f0" font-size="12" font-weight="600" text-anchor="middle">User Input</text>
  <rect x="380" y="180" width="240" height="80" rx="10" fill="#0f172a"/>
  <rect x="380" y="180" width="240" height="80" rx="10" fill="#1e1b4b" stroke="#a855f7" stroke-width="2.5"/>
  <rect x="383" y="183" width="234" height="74" rx="8" fill="none" stroke="#a855f7" stroke-width="0.8" opacity="0.5"/>
  <text x="500" y="215" fill="#e2e8f0" font-size="14" text-anchor="middle">⚡</text>
  <text x="500" y="245" fill="#e2e8f0" font-size="13" font-weight="600" text-anchor="middle">Planner (LLM)</text>
  <rect x="400" y="320" width="200" height="60" rx="6" fill="#0f172a"/>
  <rect x="400" y="320" width="200" height="60" rx="6" fill="#1c1917" stroke="#f97316" stroke-width="1.5"/>
  <text x="500.0" y="348.0" fill="#e2e8f0" font-size="12" font-weight="600" text-anchor="middle">Tool Router</text>
  <text x="500.0" y="364.0" fill="#94a3b8" font-size="9" text-anchor="middle">Route by intent</text>
  <rect x="120" y="420" width="160" height="60" rx="6" fill="#0f172a"/>
  <rect x="120" y="420" width="160" height="60" rx="6" fill="#1c1917" stroke="#f97316" stroke-width="1.5"/>
  <text x="200.0" y="448.0" fill="#e2e8f0" font-size="12" font-weight="600" text-anchor="middle">Web Search</text>
  <text x="200.0" y="464.0" fill="#94a3b8" font-size="9" text-anchor="middle">Tavily / SerpAPI</text>
  <rect x="420" y="420" width="160" height="60" rx="6" fill="#0f172a"/>
  <rect x="420" y="420" width="160" height="60" rx="6" fill="#1c1917" stroke="#f97316" stroke-width="1.5"/>
  <text x="500.0" y="448.0" fill="#e2e8f0" font-size="12" font-weight="600" text-anchor="middle">Code Exec</text>
  <text x="500.0" y="464.0" fill="#94a3b8" font-size="9" text-anchor="middle">Sandbox</text>
  <rect x="720" y="420" width="160" height="60" rx="6" fill="#0f172a"/>
  <rect x="720" y="420" width="160" height="60" rx="6" fill="#052e16" stroke="#10b981" stroke-width="1.5"/>
  <text x="800.0" y="448.0" fill="#e2e8f0" font-size="12" font-weight="600" text-anchor="middle">RAG</text>
  <text x="800.0" y="464.0" fill="#94a3b8" font-size="9" text-anchor="middle">Vector Search</text>
  <rect x="400" y="530" width="200" height="50" rx="6" fill="#0f172a"/>
  <rect x="400" y="530" width="200" height="50" rx="6" fill="#1e3a5f" stroke="#3b82f6" stroke-width="1.5"/>
  <text x="500.0" y="559.0" fill="#e2e8f0" font-size="12" font-weight="600" text-anchor="middle">Aggregator</text>
  <rect x="400" y="620" width="200" height="34" rx="6" fill="#0f172a"/>
  <rect x="400" y="620" width="200" height="34" rx="6" fill="#1e1b4b" stroke="#a855f7" stroke-width="1.5"/>
  <text x="500.0" y="641.0" fill="#e2e8f0" font-size="12" font-weight="600" text-anchor="middle">Response</text>
  <rect x="830" y="386" width="70" height="14" rx="2" fill="#0f172a" opacity="0.95"/>
  <text x="865" y="397" fill="#7c3aed" font-size="9" text-anchor="middle">re-plan</text>
  <line x1="60" y1="620" x2="90" y2="620" stroke="#a855f7" stroke-width="1.5" marker-end="url(#arr-p)"/>
  <text x="96" y="624" fill="#94a3b8" font-size="9">Agent flow</text>
  <line x1="60" y1="636" x2="90" y2="636" stroke="#f97316" stroke-width="1.5" marker-end="url(#arr-o)"/>
  <text x="96" y="640" fill="#94a3b8" font-size="9">Tool call</text>
  <line x1="60" y1="652" x2="90" y2="652" stroke="#7c3aed" stroke-width="1.5" stroke-dasharray="5,3" marker-end="url(#arr-p)"/>
  <text x="96" y="656" fill="#94a3b8" font-size="9">Feedback loop</text>
</svg>