<svg xmlns="http://www.w3.org/2000/svg" viewBox="0 0 1000 680" width="1000" height="680">
  <style>
    text { font-family: 'JetBrains Mono', 'SF Mono', 'Fira Code', monospace; }
  </style>
  <defs>
    <pattern id="grid" width="40" height="40" patternUnits="userSpaceOnUse">
      <path d="M 40 0 L 0 0 0 40" fill="none" stroke="#1e293b" stroke-width="0.5"/>
    </pattern>
    <marker id="arr" markerWidth="10" markerHeight="7" refX="9" refY="3.5" orient="auto">
      <polygon points="0 0, 10 3.5, 0 7" fill="#64748b"/>
    </marker>
    <marker id="arr-cyan" markerWidth="10" markerHeight="7" refX="9" refY="3.5" orient="auto">
      <polygon points="0 0, 10 3.5, 0 7" fill="#22d3ee"/>
    </marker>
    <marker id="arr-emerald" markerWidth="10" markerHeight="7" refX="9" refY="3.5" orient="auto">
      <polygon points="0 0, 10 3.5, 0 7" fill="#34d399"/>
    </marker>
    <marker id="arr-orange" markerWidth="10" markerHeight="7" refX="9" refY="3.5" orient="auto">
      <polygon points="0 0, 10 3.5, 0 7" fill="#fb923c"/>
    </marker>
  </defs>
  <rect width="1000" height="680" fill="#020617"/>
  <rect width="1000" height="680" fill="url(#grid)"/>
  <text x="500" y="40" fill="#ffffff" font-size="16" font-weight="700" text-anchor="middle">Microservices Architecture</text>
  <text x="500" y="58" fill="#94a3b8" font-size="9" text-anchor="middle">API Gateway Pattern with Event-Driven Communication</text>
  <line x1="500" y1="120" x2="500" y2="178" stroke="#64748b" stroke-width="1.5" marker-end="url(#arr)"/>
  <line x1="420" y1="230" x2="240" y2="318" stroke="#22d3ee" stroke-width="1.5" marker-end="url(#arr-cyan)"/>
  <line x1="500" y1="240" x2="500" y2="318" stroke="#34d399" stroke-width="1.5" marker-end="url(#arr-emerald)"/>
  <line x1="580" y1="230" x2="760" y2="318" stroke="#34d399" stroke-width="1.5" marker-end="url(#arr-emerald)"/>
  <line x1="200" y1="380" x2="200" y2="478" stroke="#a78bfa" stroke-width="1.5" stroke-dasharray="5,3" marker-end="url(#arr)"/>
  <line x1="500" y1="380" x2="440" y2="478" stroke="#a78bfa" stroke-width="1.5" marker-end="url(#arr)"/>
  <line x1="760" y1="380" x2="560" y2="478" stroke="#a78bfa" stroke-width="1.5" marker-end="url(#arr)"/>
  <line x1="760" y1="380" x2="760" y2="478" stroke="#fb923c" stroke-width="1.5" marker-end="url(#arr-orange)"/>
  <path d="M 700,510 Q 600,440 560,380" fill="none" stroke="#fb923c" stroke-width="1.5" stroke-dasharray="4,2" marker-end="url(#arr-orange)"/>
  <rect x="400" y="80" width="200" height="40" rx="6" fill="#020617"/>
  <rect x="400" y="80" width="200" height="40" rx="6" fill="rgba(8, 51, 68, 0.4)" stroke="#22d3ee" stroke-width="1.5"/>
  <text x="500" y="105" fill="#ffffff" font-size="12" font-weight="600" text-anchor="middle">Web Client</text>
  <rect x="380" y="180" width="240" height="60" rx="6" fill="#020617"/>
  <rect x="380" y="180" width="240" height="60" rx="6" fill="rgba(8, 51, 68, 0.4)" stroke="#22d3ee" stroke-width="1.5"/>
  <text x="500" y="207" fill="#ffffff" font-size="13" font-weight="600" text-anchor="middle">API Gateway</text>
  <text x="500" y="225" fill="#94a3b8" font-size="9" text-anchor="middle">Kong / Nginx :443</text>
  <rect x="120" y="320" width="160" height="60" rx="6" fill="#020617"/>
  <rect x="120" y="320" width="160" height="60" rx="6" fill="rgba(136, 19, 55, 0.4)" stroke="#fb7185" stroke-width="1.5"/>
  <text x="200" y="347" fill="#ffffff" font-size="12" font-weight="600" text-anchor="middle">Auth Service</text>
  <text x="200" y="365" fill="#94a3b8" font-size="9" text-anchor="middle">JWT + OAuth2</text>
  <rect x="420" y="320" width="160" height="60" rx="6" fill="#020617"/>
  <rect x="420" y="320" width="160" height="60" rx="6" fill="rgba(6, 78, 59, 0.4)" stroke="#34d399" stroke-width="1.5"/>
  <text x="500" y="347" fill="#ffffff" font-size="12" font-weight="600" text-anchor="middle">User Service</text>
  <text x="500" y="365" fill="#94a3b8" font-size="9" text-anchor="middle">gRPC :50051</text>
  <rect x="680" y="320" width="160" height="60" rx="6" fill="#020617"/>
  <rect x="680" y="320" width="160" height="60" rx="6" fill="rgba(6, 78, 59, 0.4)" stroke="#34d399" stroke-width="1.5"/>
  <text x="760" y="347" fill="#ffffff" font-size="12" font-weight="600" text-anchor="middle">Order Service</text>
  <text x="760" y="365" fill="#94a3b8" font-size="9" text-anchor="middle">REST :8080</text>
  <rect x="140" y="480" width="120" height="50" rx="6" fill="#020617"/>
  <ellipse cx="200" cy="485" rx="60" ry="12" fill="#020617"/>
  <ellipse cx="200" cy="485" rx="60" ry="12" fill="rgba(76, 29, 149, 0.4)" stroke="#a78bfa" stroke-width="1.5"/>
  <rect x="140" y="485" width="120" height="45" fill="#020617"/>
  <line x1="140" y1="485" x2="140" y2="530" stroke="#a78bfa" stroke-width="1.5"/>
  <line x1="260" y1="485" x2="260" y2="530" stroke="#a78bfa" stroke-width="1.5"/>
  <ellipse cx="200" cy="530" rx="60" ry="12" fill="rgba(76, 29, 149, 0.6)" stroke="#a78bfa" stroke-width="1.5"/>
  <text x="200" y="515" fill="#ffffff" font-size="11" font-weight="600" text-anchor="middle">Redis</text>
  <text x="200" y="556" fill="#94a3b8" font-size="9" text-anchor="middle">Session Cache</text>
  <rect x="420" y="480" width="120" height="50" rx="6" fill="#020617"/>
  <ellipse cx="500" cy="485" rx="60" ry="12" fill="#020617"/>
  <ellipse cx="500" cy="485" rx="60" ry="12" fill="rgba(76, 29, 149, 0.4)" stroke="#a78bfa" stroke-width="1.5"/>
  <rect x="440" y="485" width="120" height="45" fill="#020617"/>
  <line x1="440" y1="485" x2="440" y2="530" stroke="#a78bfa" stroke-width="1.5"/>
  <line x1="560" y1="485" x2="560" y2="530" stroke="#a78bfa" stroke-width="1.5"/>
  <ellipse cx="500" cy="530" rx="60" ry="12" fill="rgba(76, 29, 149, 0.6)" stroke="#a78bfa" stroke-width="1.5"/>
  <text x="500" y="515" fill="#ffffff" font-size="11" font-weight="600" text-anchor="middle">PostgreSQL</text>
  <text x="500" y="556" fill="#94a3b8" font-size="9" text-anchor="middle">Primary Store</text>
  <rect x="680" y="480" width="160" height="60" rx="6" fill="#020617"/>
  <rect x="680" y="480" width="160" height="60" rx="6" fill="rgba(251, 146, 60, 0.3)" stroke="#fb923c" stroke-width="1.5"/>
  <text x="760" y="507" fill="#ffffff" font-size="12" font-weight="600" text-anchor="middle">Apache Kafka</text>
  <text x="760" y="525" fill="#94a3b8" font-size="9" text-anchor="middle">Event Streaming</text>
  <rect x="481.0" y="146" width="38" height="14" rx="2" fill="#020617" opacity="0.95"/>
  <text x="500" y="156" fill="#94a3b8" font-size="9" text-anchor="middle">HTTPS</text>
  <rect x="312.0" y="272" width="56" height="14" rx="2" fill="#020617" opacity="0.95"/>
  <text x="340" y="282" fill="#fb7185" font-size="9" text-anchor="middle">JWT Auth</text>
  <rect x="469.0" y="296" width="62" height="14" rx="2" fill="#020617" opacity="0.95"/>
  <text x="500" y="306" fill="#94a3b8" font-size="9" text-anchor="middle">REST/gRPC</text>
  <rect x="664.0" y="272" width="32" height="14" rx="2" fill="#020617" opacity="0.95"/>
  <text x="680" y="282" fill="#94a3b8" font-size="9" text-anchor="middle">REST</text>
  <rect x="152.0" y="438" width="56" height="14" rx="2" fill="#020617" opacity="0.95"/>
  <text x="180" y="448" fill="#a78bfa" font-size="9" text-anchor="middle">Sessions</text>
  <rect x="441.0" y="438" width="38" height="14" rx="2" fill="#020617" opacity="0.95"/>
  <text x="460" y="448" fill="#a78bfa" font-size="9" text-anchor="middle">Users</text>
  <rect x="618.0" y="438" width="44" height="14" rx="2" fill="#020617" opacity="0.95"/>
  <text x="640" y="448" fill="#a78bfa" font-size="9" text-anchor="middle">Orders</text>
  <rect x="748.0" y="438" width="44" height="14" rx="2" fill="#020617" opacity="0.95"/>
  <text x="770" y="448" fill="#fb923c" font-size="9" text-anchor="middle">Events</text>
  <text x="40" y="620" fill="#ffffff" font-size="10" font-weight="600">Legend</text>
  <rect x="40" y="632" width="16" height="10" rx="2" fill="rgba(8, 51, 68, 0.4)" stroke="#22d3ee" stroke-width="1"/>
  <text x="62" y="641" fill="#94a3b8" font-size="8">Frontend</text>
  <rect x="40" y="648" width="16" height="10" rx="2" fill="rgba(6, 78, 59, 0.4)" stroke="#34d399" stroke-width="1"/>
  <text x="62" y="657" fill="#94a3b8" font-size="8">Backend</text>
  <rect x="40" y="664" width="16" height="10" rx="2" fill="rgba(76, 29, 149, 0.4)" stroke="#a78bfa" stroke-width="1"/>
  <text x="62" y="673" fill="#94a3b8" font-size="8">Database</text>
  <rect x="40" y="680" width="16" height="10" rx="2" fill="rgba(136, 19, 55, 0.4)" stroke="#fb7185" stroke-width="1"/>
  <text x="62" y="689" fill="#94a3b8" font-size="8">Security</text>
  <rect x="40" y="696" width="16" height="10" rx="2" fill="rgba(251, 146, 60, 0.3)" stroke="#fb923c" stroke-width="1"/>
  <text x="62" y="705" fill="#94a3b8" font-size="8">Message Bus</text>
</svg>