<svg xmlns="http://www.w3.org/2000/svg" viewBox="0 0 1000 640" width="1000" height="640">
  <style>
    text { font-family: 'Courier New', monospace; fill: #caf0f8; }
  </style>
  <defs>
    <pattern id="grid" width="30" height="30" patternUnits="userSpaceOnUse">
      <path d="M 30 0 L 0 0 0 30" fill="none" stroke="#112240" stroke-width="0.5"/>
    </pattern>
    <marker id="arr-c" markerWidth="8" markerHeight="6" refX="7" refY="3" orient="auto">
      <polygon points="0 0, 8 3, 0 6" fill="#00b4d8"/>
    </marker>
    <marker id="arr-grn" markerWidth="8" markerHeight="6" refX="7" refY="3" orient="auto">
      <polygon points="0 0, 8 3, 0 6" fill="#06d6a0"/>
    </marker>
    <marker id="arr-org" markerWidth="8" markerHeight="6" refX="7" refY="3" orient="auto">
      <polygon points="0 0, 8 3, 0 6" fill="#f77f00"/>
    </marker>
  </defs>
  <rect width="1000" height="640" fill="#0a1628"/>
  <rect width="1000" height="640" fill="url(#grid)" opacity="0.6"/>
  <rect x="740" y="570" width="240" height="55" fill="#0d1f3c" stroke="#00b4d8" stroke-width="1"/>
  <line x1="740" y1="588" x2="980" y2="588" stroke="#00b4d8" stroke-width="0.5"/>
  <text x="860" y="584" text-anchor="middle" fill="#caf0f8" font-size="9" letter-spacing="0.05em">CI/CD PIPELINE</text>
  <text x="860" y="612" text-anchor="middle" fill="#00b4d8" font-size="13" font-weight="700">DEPLOYMENT FLOW</text>
  <text x="500" y="40" fill="#caf0f8" font-size="16" font-weight="700" text-anchor="middle" letter-spacing="0.05em">CI/CD PIPELINE FLOWCHART</text>
  <line x1="200" y1="120" x2="318" y2="120" stroke="#00b4d8" stroke-width="1" marker-end="url(#arr-c)"/>
  <line x1="460" y1="120" x2="578" y2="120" stroke="#00b4d8" stroke-width="1" marker-end="url(#arr-c)"/>
  <line x1="720" y1="120" x2="838" y2="120" stroke="#00b4d8" stroke-width="1" marker-end="url(#arr-c)"/>
  <line x1="900" y1="155" x2="900" y2="258" stroke="#06d6a0" stroke-width="1" marker-end="url(#arr-grn)"/>
  <line x1="960" y1="120" x2="960" y2="120" stroke="#f77f00" stroke-width="1"/>
  <line x1="900" y1="320" x2="900" y2="378" stroke="#00b4d8" stroke-width="1" marker-end="url(#arr-c)"/>
  <line x1="900" y1="430" x2="900" y2="478" stroke="#06d6a0" stroke-width="1" marker-end="url(#arr-grn)"/>
  <line x1="940" y1="100" x2="940" y2="100" stroke="#f77f00" stroke-width="1"/>
  <rect x="870" y="195" width="30" height="14" rx="2" fill="#0a1628" opacity="0.95"/>
  <text x="885" y="206" fill="#06d6a0" font-size="9" text-anchor="middle">YES</text>
  <line x1="940" y1="120" x2="960" y2="120" stroke="#f77f00" stroke-width="1"/>
  <path d="M 940,120 L 970,120 L 970,280 L 680,280" fill="none" stroke="#f77f00" stroke-width="1" marker-end="url(#arr-org)"/>
  <rect x="558" y="260" width="120" height="40" rx="2" fill="#0d1f3c" stroke="#f77f00" stroke-width="1"/>
  <text x="618" y="284" fill="#f77f00" font-size="12" text-anchor="middle">Notify Team</text>
  <rect x="940" y="185" width="30" height="14" rx="2" fill="#0a1628" opacity="0.95"/>
  <text x="955" y="196" fill="#f77f00" font-size="9" text-anchor="middle">NO</text>
  <path d="M 840,410 L 680,410 L 680,295" fill="none" stroke="#f77f00" stroke-width="1" stroke-dasharray="4,2" marker-end="url(#arr-org)"/>
  <rect x="740" y="396" width="50" height="14" rx="2" fill="#0a1628" opacity="0.95"/>
  <text x="765" y="407" fill="#f77f00" font-size="9" text-anchor="middle">REJECT</text>
  <rect x="80" y="90" width="120" height="60" rx="2" fill="#0d1f3c" stroke="#00b4d8" stroke-width="1"/>
  <text x="140.0" y="118.0" fill="#caf0f8" font-size="13" text-anchor="middle">Git Push</text>
  <text x="140.0" y="134.0" fill="#48cae4" font-size="9" text-anchor="middle">trigger</text>
  <rect x="320" y="90" width="140" height="60" rx="2" fill="#0d1f3c" stroke="#00b4d8" stroke-width="1"/>
  <text x="390.0" y="118.0" fill="#caf0f8" font-size="13" text-anchor="middle">Build</text>
  <text x="390.0" y="134.0" fill="#48cae4" font-size="9" text-anchor="middle">docker build</text>
  <rect x="580" y="90" width="140" height="60" rx="2" fill="#0d1f3c" stroke="#00b4d8" stroke-width="1"/>
  <text x="650.0" y="118.0" fill="#caf0f8" font-size="13" text-anchor="middle">Test</text>
  <text x="650.0" y="134.0" fill="#48cae4" font-size="9" text-anchor="middle">unit + e2e</text>
  <polygon points="900,85 940,120 900,155 860,120" fill="#0d1f3c" stroke="#f77f00" stroke-width="1.5"/>
  <text x="900" y="124" fill="#f77f00" font-size="11" text-anchor="middle">Pass?</text>
  <rect x="820" y="260" width="160" height="60" rx="2" fill="#0d1f3c" stroke="#06d6a0" stroke-width="1"/>
  <text x="900.0" y="288.0" fill="#caf0f8" font-size="13" text-anchor="middle">Deploy Staging</text>
  <text x="900.0" y="304.0" fill="#48cae4" font-size="9" text-anchor="middle">k8s rollout</text>
  <polygon points="900,380 940,410 900,440 860,410" fill="#0d1f3c" stroke="#f77f00" stroke-width="1.5"/>
  <text x="900" y="414" fill="#f77f00" font-size="11" text-anchor="middle">Approve?</text>
  <rect x="820" y="480" width="160" height="60" rx="2" fill="#0d1f3c" stroke="#06d6a0" stroke-width="1"/>
  <text x="900.0" y="508.0" fill="#caf0f8" font-size="13" text-anchor="middle">Deploy Prod</text>
  <text x="900.0" y="524.0" fill="#48cae4" font-size="9" text-anchor="middle">blue/green</text>
  <line x1="40" y1="540" x2="70" y2="540" stroke="#00b4d8" stroke-width="1" marker-end="url(#arr-c)"/>
  <text x="76" y="544" fill="#48cae4" font-size="9">Pipeline flow</text>
  <line x1="40" y1="556" x2="70" y2="556" stroke="#06d6a0" stroke-width="1" marker-end="url(#arr-grn)"/>
  <text x="76" y="560" fill="#48cae4" font-size="9">Success path</text>
  <line x1="40" y1="572" x2="70" y2="572" stroke="#f77f00" stroke-width="1" marker-end="url(#arr-org)"/>
  <text x="76" y="576" fill="#48cae4" font-size="9">Failure / reject</text>
</svg>